<svg xmlns="http://www.w3.org/2000/svg" viewBox="0 0 64 64">
  <rect width="64" height="64" rx="12" fill="#1e293b"/>
  <rect x="12" y="22" width="16" height="30" rx="2" fill="#4f46e5"/>
  <rect x="16" y="26" width="3" height="4" rx="0.5" fill="#c7d2fe"/>
  <rect x="21" y="26" width="3" height="4" rx="0.5" fill="#c7d2fe"/>
  <rect x="16" y="33" width="3" height="4" rx="0.5" fill="#c7d2fe"/>
  <rect x="21" y="33" width="3" height="4" rx="0.5" fill="#c7d2fe"/>
  <rect x="16" y="40" width="3" height="4" rx="0.5" fill="#c7d2fe"/>
  <rect x="21" y="40" width="3" height="4" rx="0.5" fill="#c7d2fe"/>
  <rect x="36" y="14" width="16" height="38" rx="2" fill="#6366f1"/>
  <rect x="40" y="18" width="3" height="4" rx="0.5" fill="#c7d2fe"/>
  <rect x="45" y="18" width="3" height="4" rx="0.5" fill="#c7d2fe"/>
  <rect x="40" y="25" width="3" height="4" rx="0.5" fill="#c7d2fe"/>
  <rect x="45" y="25" width="3" height="4" rx="0.5" fill="#c7d2fe"/>
  <rect x="40" y="32" width="3" height="4" rx="0.5" fill="#c7d2fe"/>
  <rect x="45" y="32" width="3" height="4" rx="0.5" fill="#c7d2fe"/>
  <rect x="40" y="39" width="3" height="4" rx="0.5" fill="#c7d2fe"/>
  <rect x="45" y="39" width="3" height="4" rx="0.5" fill="#c7d2fe"/>
  <circle cx="48" cy="46" r="3" fill="#10b981"/>
</svg>
